<?xml version="1.0" standalone="no"?>
<!DOCTYPE svg PUBLIC "-//W3C//DTD SVG 20010904//EN"
 "http://www.w3.org/TR/2001/REC-SVG-20010904/DTD/svg10.dtd">
<svg version="1.0" xmlns="http://www.w3.org/2000/svg"
 width="1153.000000pt" height="1153.000000pt" viewBox="0 0 1153.000000 1153.000000"
 preserveAspectRatio="xMidYMid meet">
<metadata>
Created by potrace 1.11, written by Peter Selinger 2001-2013
</metadata>
<g transform="translate(0.000000,1153.000000) scale(0.100000,-0.100000)"
fill="#000000" stroke="none">
<path d="M5690 10281 c-71 -23 -106 -42 -199 -105 -132 -91 -733 -502 -891
-610 -52 -35 -133 -91 -180 -123 -47 -33 -148 -101 -225 -153 -77 -52 -142
-97 -145 -100 -3 -3 -32 -24 -65 -46 -33 -21 -170 -115 -305 -207 -135 -93
-339 -233 -454 -311 -115 -79 -216 -149 -225 -155 -15 -10 -142 -97 -683 -468
-104 -70 -230 -157 -282 -193 -52 -36 -145 -100 -208 -142 -62 -43 -117 -81
-123 -86 -5 -4 -75 -52 -155 -107 -133 -90 -232 -158 -350 -240 -25 -17 -126
-87 -225 -155 -99 -69 -184 -128 -190 -132 -5 -5 -60 -44 -121 -88 -118 -83
-158 -125 -198 -206 -85 -173 -41 -403 104 -537 117 -109 274 -152 425 -117
88 20 112 34 605 373 69 47 130 90 135 94 6 5 71 48 145 97 191 126 396 264
530 357 63 44 140 96 170 117 30 21 93 64 140 97 47 33 162 112 255 176 94 65
233 161 310 215 77 53 280 192 450 310 171 117 315 217 320 221 6 4 55 39 110
76 141 96 237 162 585 403 168 116 357 246 420 289 63 44 140 96 170 118 98
69 470 317 475 317 6 0 262 -168 420 -277 72 -49 195 -133 275 -188 142 -96
183 -125 207 -145 7 -5 15 -10 17 -10 3 0 41 -24 83 -54 43 -30 130 -90 193
-133 63 -43 266 -181 451 -308 184 -126 431 -295 548 -375 117 -80 218 -149
225 -155 7 -5 19 -14 28 -20 9 -5 126 -85 260 -177 134 -92 293 -200 353 -242
61 -41 115 -79 120 -83 6 -4 51 -35 100 -69 128 -87 622 -425 950 -651 304
-209 520 -351 555 -363 61 -22 224 -21 289 1 108 37 213 125 266 222 33 59 65
174 65 229 -1 56 -41 178 -79 237 -53 82 -80 103 -636 486 -143 99 -261 183
-263 187 -2 4 -8 8 -13 8 -5 0 -44 25 -86 54 -43 30 -148 103 -233 161 -304
208 -415 284 -432 296 -16 12 -504 347 -738 507 -140 95 -428 293 -565 387
-451 310 -538 369 -735 502 -96 65 -177 121 -180 124 -3 3 -57 40 -120 83 -63
42 -207 140 -320 218 -113 77 -236 161 -275 186 -38 26 -72 49 -75 52 -11 12
-427 288 -460 305 -85 44 -228 56 -320 26z"/>
<path d="M8680 4436 l0 -2166 -880 0 c-697 0 -880 3 -881 13 0 6 -2 590 -3
1297 l-2 1286 -43 88 c-65 134 -175 228 -311 264 -74 19 -1357 22 -1460 2 -93
-17 -189 -71 -255 -142 -51 -55 -105 -149 -120 -211 -4 -14 -8 -604 -8 -1311
l-2 -1286 -881 0 -882 0 0 1528 c-2 3054 0 2784 -20 2772 -9 -6 -82 -55 -162
-110 -80 -55 -183 -126 -230 -157 -47 -32 -90 -62 -96 -68 -6 -5 -104 -73
-217 -150 l-206 -140 -1 -865 c-1 -1874 0 -3017 5 -3065 9 -96 61 -229 128
-329 111 -165 315 -301 506 -336 35 -7 1139 -10 3175 -10 2593 0 3129 3 3171
14 347 94 596 392 605 725 2 82 3 3460 1 3776 l-1 110 -293 200 c-160 109
-294 202 -297 205 -3 3 -13 10 -22 15 -14 8 -150 101 -298 204 -20 13 -20 5
-20 -2153z"/>
</g>
</svg>
